<mxfile host="app.diagrams.net" modified="2024-05-15T22:15:56.093Z" agent="Mozilla/5.0 (Windows NT 10.0; Win64; x64) AppleWebKit/537.36 (KHTML, like Gecko) Chrome/124.0.0.0 Safari/537.36" version="24.4.2" etag="t9l1S8qVZyE4ha_Gm_JL" type="github">
  <diagram name="PÃ¡gina-1" id="Y3HNNbsACo-6-dY3FfE6">
    <mxGraphModel>
      <root>
        <mxCell id="0" />
        <mxCell id="1" parent="0" />
      </root>
    </mxGraphModel>
  </diagram>
</mxfile>
